<svg width="87" height="31" viewBox="0 0 87 31" fill="none" xmlns="http://www.w3.org/2000/svg">
<g clip-path="url(#clip0_7642_3133)">
<path d="M33.4619 11.1538H26.7695V30.115H33.4619V11.1538Z" fill="black"/>
<path d="M33.4619 0L26.7695 0V5.57689H33.4619V0Z" fill="black"/>
<path d="M60.2286 11.1535V5.57666H36.7969V30.1148H60.2286V24.5379H43.4892V20.0496H57.989V14.4995H43.4892V11.1535H60.2286Z" fill="black"/>
<path d="M71.5091 11.1536H86.999V5.57666H71.5236C66.5183 5.57666 62.4609 9.63401 62.4609 14.6393V21.013C62.4609 26.04 66.536 30.1151 71.5631 30.1151H81.4225V24.5382L71.5112 24.5359C69.5942 24.5355 68.0405 22.9815 68.0398 21.0646L68.0385 14.6245C68.0978 12.6604 69.6703 11.0916 71.5095 11.1536H71.5091Z" fill="black"/>
<path d="M86.9993 14.4966H76.9609V20.0671H81.4227V24.5383H87.0003L86.9993 14.4966Z" fill="black"/>
<path d="M26.769 11.1536V5.57666H7.24989C3.24581 5.57666 0 8.82247 0 12.8265C0 16.8306 2.92884 19.7491 6.65414 20.052H16.7307C17.9627 20.052 18.9616 21.0508 18.9616 22.2829C18.9616 23.5149 17.9627 24.5339 16.7307 24.5339C16.6891 24.5339 1.1198 24.5382 1.1198 24.5382V30.1151H16.7307C21.0427 30.1151 24.5381 26.6197 24.5381 22.3073C24.5381 17.995 21.0433 14.4962 16.7313 14.4962C16.7313 14.4962 7.25558 14.4982 7.24989 14.4982C6.32577 14.4982 5.57689 13.7507 5.57689 12.8265C5.57689 11.9024 6.3261 11.1536 7.24989 11.1536H26.769Z" fill="black"/>
</g>
<defs>
<clipPath id="clip0_7642_3133">
<rect width="87" height="30.115" fill="white"/>
</clipPath>
</defs>
</svg>
