<svg width="1078" height="789" viewBox="0 0 1078 789" fill="none" xmlns="http://www.w3.org/2000/svg">
<path d="M644.25 1636.45L640.548 1717L544.567 1712.53L548.27 1631.97L644.25 1636.45ZM334.567 1093.1C384.704 1056.52 454.79 1067.8 491.112 1118.29L607.069 1279.49L660.531 1281.98L647.949 1555.86C649.543 1555.93 927.522 1568.89 927.887 1568.91C941.14 1569.52 952.38 1559.21 952.993 1545.86C953.606 1532.51 943.359 1521.21 930.105 1520.59C929.729 1520.58 794.118 1514.29 794.118 1514.29C732.276 1511.41 684.476 1458.53 687.339 1396.24C690.202 1333.96 742.655 1285.8 804.497 1288.69L1001.93 1297.89L1037.2 1257.34L1241.97 1438.01L1178.65 1510.8L1024.9 1375.14L1024.69 1379.68C1024.31 1379.66 801.388 1369.33 800.794 1369.3L800.791 1369.3C783.124 1368.48 768.123 1382.53 767.305 1400.33C766.486 1418.12 780.148 1433.21 797.818 1434.04L942.336 1440.77C995.565 1447.64 1035.5 1494.65 1032.98 1549.58C1030.32 1607.42 981.612 1652.14 924.188 1649.46L644.243 1636.41L647.941 1555.86L551.968 1551.39L561.414 1345.74L557.764 1348.4C557.559 1348.12 426.567 1166.12 426.218 1165.64C415.839 1151.21 395.578 1148.16 381.255 1158.61C366.932 1169.06 363.732 1189.23 374.11 1203.66L374.113 1203.66L458.989 1321.65C486.848 1367.84 475.253 1428.6 431.032 1460.87C384.476 1494.84 319.398 1484.36 285.669 1437.48L121.252 1208.91L186.092 1161.6C186.092 1161.6 350.275 1389.84 350.509 1390.17C358.291 1400.98 373.31 1403.4 384.054 1395.56C394.797 1387.73 397.178 1372.61 389.396 1361.79C389.14 1361.44 309.59 1250.9 309.507 1250.78C273.185 1200.29 284.431 1129.68 334.567 1093.1ZM1537.88 992.03L1336.71 1028.52L1340.09 1031.51C1339.89 1031.75 1192.91 1200.81 1192.45 1201.34C1180.79 1214.74 1182.35 1235.31 1195.65 1247.05C1208.96 1258.79 1229.19 1257.44 1240.85 1244.04L1336.18 1134.45C1374.69 1096.82 1436.09 1094.68 1477.16 1130.92C1520.4 1169.07 1524.75 1235.31 1486.87 1278.86L1302.21 1491.14L1362.43 1544.27L1299.11 1617.06L1238.89 1563.92L1302.19 1491.14L1241.97 1438.01C1242.01 1437.97 1426.58 1225.78 1426.64 1225.72C1435.38 1215.67 1434.38 1200.38 1424.4 1191.58C1414.42 1182.78 1399.26 1183.8 1390.52 1193.85C1390.46 1193.91 1300.99 1296.81 1300.83 1296.99C1260.04 1343.89 1189.19 1348.56 1142.62 1307.47C1096.06 1266.39 1091.38 1195.06 1132.17 1148.16L1262.41 998.436L1252.93 945.386L1520.86 896.797L1537.88 992.03ZM121.212 1208.94L56.3672 1256.25L0 1177.88L64.8447 1130.58L121.212 1208.94ZM204.203 552.114C204.111 552.449 129.422 823.573 129.282 824.083C125.733 836.959 133.221 850.291 146.005 853.863C158.786 857.435 172.006 849.89 175.553 837.015C175.615 836.787 211.918 704.895 211.918 704.895C228.467 644.813 290.29 609.646 349.946 626.315C409.6 642.985 444.545 705.203 427.994 765.285L375.154 957.096L406.554 1000.75L186.091 1161.6L129.72 1083.24L295.259 962.454L290.915 961.241C290.978 961.011 350.603 744.341 350.777 743.711C355.504 726.544 345.241 708.689 328.196 703.926C311.151 699.163 293.502 709.217 288.772 726.384L250.097 866.782C231.605 917.517 177.211 946.27 124.592 931.566H124.602C69.2057 916.088 36.7575 858.314 52.126 802.523L127.047 530.555L204.203 552.114ZM1695.51 963.386L1616.71 977.681L1599.68 882.445L1678.48 868.15L1695.51 963.386ZM1359.14 385.725L1262.03 566.885L1266.47 566.079C1266.5 566.243 1306.13 787.519 1306.25 788.228C1309.39 805.762 1326.33 817.363 1343.74 814.205C1361.15 811.05 1372.72 794.278 1369.58 776.744L1343.94 633.348C1338.74 579.557 1375.36 529.881 1429.11 520.136V520.133C1485.68 509.875 1539.81 547.749 1549.99 604.729L1599.66 882.501L1520.86 896.794C1520.8 896.446 1471.21 619.104 1471.19 619.021C1468.84 605.87 1456.35 597.131 1443.29 599.499C1430.24 601.867 1421.58 614.44 1423.93 627.59C1423.94 627.67 1448.04 762.274 1448.08 762.517C1459.06 823.88 1418.51 882.578 1357.58 893.63C1296.65 904.678 1238.36 863.889 1227.39 802.526L1192.36 606.623L1145.27 581.017L1274.6 339.754L1359.14 385.725ZM688.625 186.358C688.129 186.571 431.17 296.767 430.784 296.934C418.579 302.169 412.896 316.379 418.094 328.671C423.292 340.963 437.392 346.668 449.598 341.433C449.756 341.364 574.673 287.761 574.836 287.691C631.798 263.264 697.643 290.02 721.897 347.385C746.152 404.75 719.638 471.058 662.679 495.485L480.834 573.472L480.837 573.476L466.529 625.414L204.2 552.113L229.886 458.868L426.86 513.905L425.095 509.729C425.186 509.689 630.699 421.485 631.286 421.234C647.562 414.255 655.022 395.038 648.092 378.649C641.161 362.258 622.351 354.63 606.075 361.609L472.969 418.693C422.054 435.764 365.821 410.865 344.427 360.264C321.904 306.995 346.524 245.424 399.415 222.741L657.257 112.165L688.625 186.358ZM152.727 437.345L127.033 530.589L49.8789 509.024L75.5723 415.78L152.727 437.345ZM925.361 177.052C952.672 126.104 1015.82 107.101 1066.41 134.605L1312.7 268.52L1350.61 197.789L1435.16 243.755L1397.12 314.718L1312.88 268.92L1274.97 339.649C1274.6 339.451 1028.44 205.606 1028.37 205.565C1016.69 199.219 1002.12 203.602 995.819 215.36C989.518 227.115 993.88 241.776 1005.55 248.123C1005.79 248.252 1125.12 313.101 1125.36 313.23C1179.83 342.853 1200.12 411.381 1170.71 466.246C1141.3 521.114 1073.29 541.578 1018.82 511.958L844.898 417.395L795.657 438.513L689 186.254V186.251L777.401 148.339L857.487 337.754L859.627 333.759C859.863 333.887 1056.26 440.604 1056.88 440.942C1072.45 449.407 1092.02 443.301 1100.42 427.625C1108.82 411.949 1103.02 392.381 1087.45 383.916L960.147 314.697C915.149 285.25 899.418 225.446 925.361 177.052ZM745.635 74.1924L657.235 112.111L625.859 37.9189L714.259 0L745.635 74.1924Z" fill="#BF8CFF"/>
</svg>
